<svg width="824" height="416" viewBox="0 0 824 416" fill="none" xmlns="http://www.w3.org/2000/svg">
<g opacity="0.15">
<path d="M544 244H516L520 244C520.502 244 521.003 243.99 521.5 243.969V172L306.499 172L299.039 172.339C297.506 172.55 296.004 172.858 294.539 173.256C261.208 179.56 236 208.836 236 244C236 283.764 268.236 316 308 316H624C683.601 316 731.926 267.721 732 208.137L732 208C732 108.589 651.411 28 552 28H544C603.647 28 652 76.3532 652 136C652 195.647 603.647 244 544 244Z" fill="url(#paint0_linear)"/>
<path d="M524.175 243.76C523.563 243.831 522.947 243.886 522.327 243.926L524.175 243.76Z" fill="url(#paint1_linear)"/>
<path d="M274.452 387.86C276.289 387.953 278.139 388 280 388H274.5L274.452 387.86Z" fill="url(#paint2_linear)"/>
</g>
<path opacity="0.15" d="M512.116 172C512.077 172 512.039 172 512 172H280C220.353 172 172 220.353 172 280C172 339.647 220.353 388 280 388H552C651.411 388 732 307.552 732 208.314L732 208.137C731.926 267.721 683.601 316 624 316H308C268.236 316 236 283.765 236 244C236 208.836 261.208 179.56 294.539 173.256C297.554 172.437 300.726 172 304 172H307.911C307.941 172 307.97 172 308 172L512.116 172Z" fill="url(#paint3_linear)"/>
<g opacity="0.15">
<path d="M550.057 28.167C548.069 28.057 546.065 28.0009 544.049 28H550L550.057 28.167Z" fill="url(#paint4_linear)"/>
<path d="M518.001 244L524.705 243.695C526.327 243.484 527.915 243.164 529.461 242.744C562.792 236.44 588 207.164 588 172C588 132.235 555.765 100 516 100L200 100C145.928 100 101.137 139.737 93.2369 191.602C92.7492 197.003 92.5 202.472 92.5 208C92.5 307.411 173.089 388 272.5 388L280 388C220.353 388 172 339.647 172 280C172 220.353 220.353 172 280 172H308L304 172C303.666 172 303.332 172.005 303 172.014V244L518.001 244Z" fill="url(#paint5_linear)"/>
<path d="M298.741 172.381C300.062 172.188 301.406 172.067 302.769 172.021L298.741 172.381Z" fill="url(#paint6_linear)"/>
</g>
<path opacity="0.15" d="M311.884 244C311.923 244 311.961 244 312 244L544 244C603.647 244 652 195.647 652 136C652 76.3532 603.647 28 544 28L272 28C172.589 28 92 108.448 92 207.686L92.0001 207.863C92.0742 148.279 140.399 100 200 100L516 100C555.764 100 588 132.235 588 172C588 207.164 562.792 236.44 529.461 242.744C526.446 243.563 523.274 244 520 244H516.089C516.059 244 516.03 244 516 244L311.884 244Z" fill="url(#paint7_linear)"/>
<rect x="268" y="172" width="288" height="72" rx="36" fill="white"/>
<rect x="268" y="172" width="288" height="72" rx="36" fill="#003DC6" fill-opacity="0.5"/>
<path d="M303.077 211.172C303.182 214.359 305.866 216.281 309.897 216.281C314.127 216.281 316.717 214.195 316.717 210.891C316.717 208.324 315.159 206.883 311.584 206.168L309.792 205.805C307.799 205.406 306.979 204.762 306.979 203.719C306.979 202.477 308.151 201.656 309.897 201.656C311.678 201.656 312.932 202.523 313.049 203.965H316.389C316.331 200.859 313.846 198.797 309.897 198.797C306.135 198.797 303.44 200.848 303.44 203.941C303.44 206.461 305.092 208.078 308.467 208.746L310.249 209.098C312.37 209.531 313.167 210.164 313.167 211.277C313.167 212.52 311.877 213.434 309.991 213.434C308.069 213.434 306.639 212.59 306.417 211.172H303.077Z" fill="white"/>
<path d="M327.667 216V202.008H332.566V199.09H319.242V202.008H324.128V216H327.667Z" fill="white"/>
<path d="M344.5 216H348.262L342.379 199.09H338.219L332.348 216H335.981L337.27 211.898H343.211L344.5 216ZM340.199 202.324H340.281L342.449 209.25H338.031L340.199 202.324Z" fill="white"/>
<path d="M354.735 209.812H357.571L360.724 216H364.731L361.169 209.285C363.114 208.523 364.239 206.648 364.239 204.48C364.239 201.141 362.013 199.09 358.122 199.09H351.196V216H354.735V209.812ZM354.735 201.855H357.747C359.505 201.855 360.606 202.91 360.606 204.551C360.606 206.227 359.563 207.246 357.782 207.246H354.735V201.855Z" fill="white"/>
<path d="M375.353 216V202.008H380.252V199.09H366.927V202.008H371.814V216H375.353Z" fill="white"/>
<path d="M392.906 216V199.09H389.367V216H392.906Z" fill="white"/>
<path d="M400.305 216V204.926H400.41L408.32 216H411.25V199.09H407.863V210.105H407.77L399.871 199.09H396.918V216H400.305Z" fill="white"/>
<path d="M424.145 216L429.829 199.09H425.974L422.106 212.355H422.024L418.157 199.09H414.196L419.88 216H424.145Z" fill="white"/>
<path d="M443.966 213.07H436.302V208.805H443.533V206.086H436.302V202.008H443.966V199.09H432.763V216H443.966V213.07Z" fill="white"/>
<path d="M447.077 211.172C447.182 214.359 449.866 216.281 453.897 216.281C458.127 216.281 460.717 214.195 460.717 210.891C460.717 208.324 459.159 206.883 455.584 206.168L453.792 205.805C451.799 205.406 450.979 204.762 450.979 203.719C450.979 202.477 452.151 201.656 453.897 201.656C455.678 201.656 456.932 202.523 457.049 203.965H460.389C460.331 200.859 457.846 198.797 453.897 198.797C450.135 198.797 447.44 200.848 447.44 203.941C447.44 206.461 449.092 208.078 452.467 208.746L454.249 209.098C456.37 209.531 457.167 210.164 457.167 211.277C457.167 212.52 455.877 213.434 453.991 213.434C452.069 213.434 450.639 212.59 450.417 211.172H447.077Z" fill="white"/>
<path d="M471.667 216V202.008H476.566V199.09H463.241V202.008H468.128V216H471.667Z" fill="white"/>
<path d="M483.262 216V199.09H479.723V216H483.262Z" fill="white"/>
<path d="M490.661 216V204.926H490.767L498.677 216H501.606V199.09H498.22V210.105H498.126L490.227 199.09H487.274V216H490.661Z" fill="white"/>
<path d="M520.748 208.898V206.988H513.623V209.566H517.302L517.291 209.836C517.22 211.934 515.615 213.352 513.306 213.352C510.494 213.352 508.713 211.113 508.713 207.445C508.713 203.848 510.388 201.727 513.177 201.727C515.088 201.727 516.529 202.781 517.045 204.551H520.595C520.091 201.129 517.115 198.797 513.166 198.797C508.197 198.797 505.103 202.078 505.103 207.492C505.103 212.988 508.197 216.281 513.248 216.281C517.959 216.281 520.748 213.504 520.748 208.898Z" fill="white"/>
<defs>
<linearGradient id="paint0_linear" x1="272" y1="176" x2="484" y2="285" gradientUnits="userSpaceOnUse">
<stop stop-color="#003DC6"/>
<stop offset="1" stop-color="#003DC6" stop-opacity="0"/>
</linearGradient>
<linearGradient id="paint1_linear" x1="272" y1="176" x2="484" y2="285" gradientUnits="userSpaceOnUse">
<stop stop-color="#003DC6"/>
<stop offset="1" stop-color="#003DC6" stop-opacity="0"/>
</linearGradient>
<linearGradient id="paint2_linear" x1="272" y1="176" x2="484" y2="285" gradientUnits="userSpaceOnUse">
<stop stop-color="#003DC6"/>
<stop offset="1" stop-color="#003DC6" stop-opacity="0"/>
</linearGradient>
<linearGradient id="paint3_linear" x1="270" y1="142" x2="400" y2="353" gradientUnits="userSpaceOnUse">
<stop stop-color="#003DC6"/>
<stop offset="1" stop-color="#003DC6" stop-opacity="0"/>
</linearGradient>
<linearGradient id="paint4_linear" x1="323" y1="147" x2="546" y2="260" gradientUnits="userSpaceOnUse">
<stop stop-color="#003DC6" stop-opacity="0"/>
<stop offset="1" stop-color="#003DC6"/>
</linearGradient>
<linearGradient id="paint5_linear" x1="323" y1="147" x2="546" y2="260" gradientUnits="userSpaceOnUse">
<stop stop-color="#003DC6" stop-opacity="0"/>
<stop offset="1" stop-color="#003DC6"/>
</linearGradient>
<linearGradient id="paint6_linear" x1="323" y1="147" x2="546" y2="260" gradientUnits="userSpaceOnUse">
<stop stop-color="#003DC6" stop-opacity="0"/>
<stop offset="1" stop-color="#003DC6"/>
</linearGradient>
<linearGradient id="paint7_linear" x1="404" y1="38" x2="524" y2="316" gradientUnits="userSpaceOnUse">
<stop stop-color="#003DC6" stop-opacity="0"/>
<stop offset="1" stop-color="#003DC6"/>
</linearGradient>
</defs>
</svg>
