<svg width="360" height="360" viewBox="0 0 360 360" fill="none" xmlns="http://www.w3.org/2000/svg">
<path d="M280.221 220.322C271.682 241.525 256.61 259.395 237.498 271.438L146.059 180L237.498 88.561C256.092 100.278 270.863 117.51 279.513 137.961C284.978 150.882 288 165.088 288 179.999C288 182.407 287.921 184.795 287.766 187.163C287.003 198.817 284.391 209.967 280.221 220.322Z" fill="#003DC6" fill-opacity="0.2"/>
<path d="M103.503 103.762C103.589 103.675 103.676 103.589 103.762 103.503L103.503 103.762Z" fill="#003DC6" fill-opacity="0.2"/>
<path d="M88.5615 122.502L180.001 213.941L271.439 122.502C252.319 92.1597 218.514 72 180 72C141.487 72 107.681 92.1594 88.5615 122.502Z" fill="#003DC6" fill-opacity="0.2"/>
<path d="M122.502 88.561C121.53 89.1739 120.568 89.8019 119.616 90.4447C90.888 109.853 72 142.721 72 180C72 218.514 92.1598 252.319 122.502 271.439L213.941 180L122.502 88.561Z" fill="#003DC6" fill-opacity="0.2"/>
<path d="M211.157 283.438C234.95 276.281 255.286 261.139 269.05 241.125C269.87 239.933 270.666 238.724 271.439 237.498L180 146.059L88.5615 237.498C107.681 267.84 141.487 288 180 288C190.832 288 201.292 286.405 211.157 283.438Z" fill="#003DC6" fill-opacity="0.2"/>
<path d="M103.503 103.762C103.59 103.676 103.676 103.589 103.762 103.503L103.503 103.762Z" fill="#003DC6" fill-opacity="0.2"/>
</svg>
