<svg width="360" height="360" viewBox="0 0 360 360" fill="none" xmlns="http://www.w3.org/2000/svg">
<circle cx="180" cy="180" r="108" fill="#003DC6" fill-opacity="0.2"/>
<path d="M288 180C288 239.647 239.647 288 180 288C152.353 288 118 239.647 118 180C118 120.353 152.353 72 180 72C239.647 72 288 120.353 288 180Z" fill="#003DC6" fill-opacity="0.2"/>
<path d="M288 180C288 239.647 239.647 288 180 288V72C239.647 72 288 120.353 288 180Z" fill="#003DC6" fill-opacity="0.2"/>
<path d="M180 288C207.647 288 242 239.647 242 180C242 120.353 207.647 72 180 72V288Z" fill="white" fill-opacity="0.1"/>
</svg>
