<svg width="87" height="24" viewBox="0 0 87 24" fill="none" xmlns="http://www.w3.org/2000/svg">
<path d="M52.4518 13.9242C52.4518 11.3913 53.7059 10.1084 55.794 10.1084C56.5028 10.1087 57.1997 10.2915 57.8214 10.6398L59.0501 6.34565C57.9214 5.93934 56.7329 5.73403 55.5367 5.73872C50.5861 5.73872 47.4314 8.53261 47.4314 14.2166V23.6048H52.4495L52.4518 13.9242ZM20.276 0C19.724 0.0245451 19.1912 0.215626 18.745 0.549137C18.2988 0.882598 17.9592 1.34363 17.7688 1.87413C17.5785 2.40459 17.5455 2.98082 17.6751 3.5302C17.8042 4.07958 18.0898 4.57752 18.4953 4.96134C18.9009 5.34522 19.4088 5.59771 19.9546 5.68719C20.5003 5.77662 21.0598 5.69892 21.5625 5.46393C22.0652 5.22895 22.4885 4.84713 22.7792 4.36664C23.07 3.8861 23.2154 3.32836 23.1968 2.76358C23.1963 1.18408 22.025 0.0026896 20.276 0.0026896V0ZM17.7564 23.6021H22.7749V8.17172H17.7569L17.7564 23.6021ZM86.7097 0.0026896H81.6969V23.6048H86.7097V0.0026896ZM34.5395 23.9082C32.0252 23.9384 29.5449 23.3168 27.3295 22.1013V0.0026896H32.3323V6.43332C33.3955 5.9123 34.563 5.65345 35.7419 5.6776C40.5935 5.6776 44.5914 9.2963 44.5914 14.8522C44.6172 20.2167 40.9737 23.8939 34.5395 23.887V23.9082ZM32.3323 19.444C33.077 19.6211 33.8341 19.7404 34.5964 19.8006C37.4594 19.9866 39.5212 17.9059 39.5212 14.8511C39.5212 11.5146 37.3814 9.88568 34.8729 9.88568C33.9646 9.87595 33.076 10.1569 32.3323 10.6893V19.444ZM13.5916 15.5367V0.0026896H8.38654V15.8348C8.38654 18.3625 7.29463 19.6454 5.20601 19.6454C4.03376 19.6263 2.91413 19.1438 2.08241 18.2992L0 22.4037C1.63283 23.4821 3.54306 24.0373 5.48676 23.9981C10.7755 24.0199 13.5916 21.226 13.5916 15.5367ZM60.1353 14.781C60.1353 9.49134 64.0911 5.67545 69.3646 5.67545C74.44 5.67545 78.3652 9.1613 78.3652 14.8447C78.3652 15.2439 78.3026 15.8013 78.2662 16.2265H65.1692C65.6479 18.43 67.4802 19.7761 70.1198 19.7761C70.919 19.8086 71.7162 19.6739 72.4628 19.3801C73.2094 19.0864 73.8891 18.6399 74.4611 18.0681L77.1265 21.0272C75.5181 22.9006 73.1076 23.8849 69.9892 23.8849C64.0079 23.8849 60.1191 20.0371 60.1191 14.7794L60.1353 14.781ZM65.117 13.2397H73.6384C73.4691 12.2097 72.9483 11.2743 72.1682 10.5997C71.3882 9.92518 70.3996 9.555 69.378 9.555C68.3559 9.555 67.3673 9.92518 66.5872 10.5997C65.8072 11.2743 65.2863 12.2097 65.117 13.2397Z" fill="#081E39" fill-opacity="0.3"/>
</svg>
