<svg width="112" height="31" viewBox="0 0 112 31" fill="none" xmlns="http://www.w3.org/2000/svg">
<path d="M67.7503 17.9855C67.7503 14.7137 69.3701 13.0567 72.0673 13.0567C72.9828 13.0571 73.8829 13.2932 74.686 13.7431L76.2731 8.19647C74.8151 7.67164 73.28 7.40645 71.7349 7.41252C65.3404 7.41252 61.2656 11.0213 61.2656 18.3631V30.4895H67.7472L67.7503 17.9855ZM26.1898 0C25.4769 0.0317041 24.7887 0.278517 24.2123 0.709301C23.6359 1.14002 23.1973 1.73552 22.9514 2.42076C22.7055 3.10593 22.6629 3.85022 22.8303 4.55984C22.9971 5.26946 23.3659 5.91263 23.8898 6.4084C24.4137 6.90424 25.0698 7.23037 25.7746 7.34595C26.4795 7.46146 27.2023 7.36111 27.8516 7.05758C28.5009 6.75406 29.0476 6.26087 29.4232 5.64024C29.7988 5.01955 29.9866 4.29913 29.9625 3.56962C29.9619 1.52944 28.449 0.00347406 26.1898 0.00347406V0ZM22.9354 30.4861H29.4176V10.5551H22.936L22.9354 30.4861ZM112 0.00347406H105.525V30.4895H112V0.00347406ZM44.6136 30.8815C41.3659 30.9204 38.1622 30.1175 35.3007 28.5475V0.00347406H41.7625V8.30971C43.1358 7.63672 44.6438 7.30237 46.1666 7.33357C52.4333 7.33357 57.5972 12.0077 57.5972 19.184C57.6306 26.1133 52.9244 30.863 44.6136 30.854V30.8815ZM41.7625 25.1152C42.7244 25.344 43.7024 25.498 44.6871 25.5758C48.3851 25.816 51.0483 23.1285 51.0483 19.1827C51.0483 14.873 48.2843 12.769 45.0441 12.769C43.871 12.7564 42.7232 13.1194 41.7625 13.807V25.1152ZM17.5558 20.0682V0.00347406H10.8326V20.4533C10.8326 23.7182 9.42224 25.3753 6.72443 25.3753C5.21028 25.3507 3.76408 24.7275 2.68978 23.6365L0 28.9381C2.10907 30.3311 4.57645 31.0481 7.08707 30.9975C13.9184 31.0257 17.5558 27.4169 17.5558 20.0682ZM77.6748 19.0921C77.6748 12.2596 82.7844 7.33079 89.5959 7.33079C96.1517 7.33079 101.222 11.8334 101.222 19.1744C101.222 19.69 101.141 20.4101 101.094 20.9593H84.1768C84.7952 23.8054 87.1619 25.5442 90.5714 25.5442C91.6037 25.5861 92.6335 25.4121 93.5978 25.0326C94.5622 24.6532 95.44 24.0766 96.1789 23.3379L99.6217 27.1602C97.5442 29.58 94.4306 30.8513 90.4027 30.8513C82.6769 30.8513 77.6538 25.8812 77.6538 19.09L77.6748 19.0921ZM84.1095 17.1013H95.1163C94.8976 15.7709 94.2249 14.5627 93.2173 13.6913C92.2097 12.82 90.9328 12.3419 89.6132 12.3419C88.293 12.3419 87.0161 12.82 86.0085 13.6913C85.0009 14.5627 84.3282 15.7709 84.1095 17.1013Z" fill="#003DC6"/>
</svg>
