<?xml version="1.0" standalone="no"?>
<!DOCTYPE svg PUBLIC "-//W3C//DTD SVG 20010904//EN"
 "http://www.w3.org/TR/2001/REC-SVG-20010904/DTD/svg10.dtd">
<svg version="1.0" xmlns="http://www.w3.org/2000/svg"
 width="700.000000pt" height="700.000000pt" viewBox="0 0 700.000000 700.000000"
 preserveAspectRatio="xMidYMid meet">
<metadata>
Created by potrace 1.11, written by Peter Selinger 2001-2013
</metadata>
<g transform="translate(0.000000,700.000000) scale(0.100000,-0.100000)"
fill="#000000" stroke="none">
<path d="M3321 6009 c-823 -58 -1558 -514 -1986 -1231 -231 -386 -347 -813
-347 -1278 0 -565 170 -1069 514 -1527 130 -173 367 -401 558 -534 605 -424
1373 -559 2089 -368 900 239 1603 971 1805 1879 42 189 57 337 57 550 0 283
-36 518 -118 775 -231 719 -798 1314 -1504 1578 -336 126 -715 181 -1068 156z"/>
</g>
</svg>
